<?xml version="1.0" encoding="UTF-8" standalone="no"?>
<!-- Created with Inkscape (http://www.inkscape.org/) -->

<svg
   xmlns:dc="http://purl.org/dc/elements/1.1/"
   xmlns:cc="http://creativecommons.org/ns#"
   xmlns:rdf="http://www.w3.org/1999/02/22-rdf-syntax-ns#"
   xmlns:svg="http://www.w3.org/2000/svg"
   xmlns="http://www.w3.org/2000/svg"
   xmlns:sodipodi="http://sodipodi.sourceforge.net/DTD/sodipodi-0.dtd"
   xmlns:inkscape="http://www.inkscape.org/namespaces/inkscape"
   width="28.222225mm"
   height="28.222225mm"
   viewBox="0 0 100.00001 100.00001"
   id="svg2"
   version="1.1"
   inkscape:version="0.91 r13725"
   sodipodi:docname="ride_logo.svg">
  <defs
     id="defs4" />
  <sodipodi:namedview
     id="base"
     pagecolor="#ffffff"
     bordercolor="#666666"
     borderopacity="1.0"
     inkscape:pageopacity="0.0"
     inkscape:pageshadow="2"
     inkscape:zoom="1.979899"
     inkscape:cx="127.19149"
     inkscape:cy="20.074"
     inkscape:document-units="px"
     inkscape:current-layer="layer1"
     showgrid="false"
     inkscape:window-width="1440"
     inkscape:window-height="855"
     inkscape:window-x="0"
     inkscape:window-y="1"
     inkscape:window-maximized="1"
     fit-margin-top="0"
     fit-margin-left="0"
     fit-margin-right="0"
     fit-margin-bottom="0" />
  <metadata
     id="metadata7">
    <rdf:RDF>
      <cc:Work
         rdf:about="">
        <dc:format>image/svg+xml</dc:format>
        <dc:type
           rdf:resource="http://purl.org/dc/dcmitype/StillImage" />
        <dc:title />
      </cc:Work>
    </rdf:RDF>
  </metadata>
  <g
     inkscape:label="Capa 1"
     inkscape:groupmode="layer"
     id="layer1"
     transform="translate(618.17857,-2377.9203)">
    <rect
       style="opacity:1;fill:#04d1e1;fill-opacity:1;stroke:none;stroke-width:2.5;stroke-linecap:round;stroke-miterlimit:4;stroke-dasharray:none;stroke-dashoffset:0;stroke-opacity:1"
       id="rect4266"
       width="100"
       height="100"
       x="-618.17859"
       y="2377.9204" />
    <g
       transform="matrix(0.85764456,-0.22980517,0,0.85764456,169.72727,1508.1573)"
       id="g4268">
      <g
         transform="matrix(1.0586059,-0.05219534,0.05219534,1.0586059,-218.74175,43.755963)"
         style="font-style:normal;font-weight:normal;font-size:38.96713638px;line-height:125%;font-family:Sans;letter-spacing:0px;word-spacing:0px;fill:#ffffff;fill-opacity:1;stroke:none;stroke-width:1px;stroke-linecap:butt;stroke-linejoin:miter;stroke-opacity:1"
         id="g4271">
        <path
           d="m -658.24188,728.66226 q -0.74037,0 -1.13004,-0.74038 -0.38968,-0.77934 -0.38968,-1.48075 0,-0.74037 0.46761,-1.67559 0,-0.50657 -0.38967,-0.50657 -1.51972,0 -3.46808,1.83146 -1.94835,1.79248 -3.27324,3.74084 -1.32488,1.90939 -2.41596,3.85775 -0.66244,1.16901 -2.7277,1.16901 -1.05211,0 -1.05211,-0.4676 0,-1.05212 3.81878,-7.8324 3.85775,-6.81925 5.10469,-7.28685 0.85728,-0.42864 1.90939,-0.42864 1.09108,0 1.09108,0.4676 0,0.42864 -0.89624,1.71456 -0.89625,1.28591 -0.89625,1.63662 0,0.3507 0.27277,0.3507 0.15587,0 0.85728,-0.4676 1.71456,-1.28592 4.20845,-2.64977 l 0.35071,-0.4676 q 0.93521,-1.16902 2.68873,-1.16902 1.79249,0 1.79249,0.70141 -0.0779,0.19484 -0.38967,0.62347 -3.07841,4.20846 -5.18263,8.80658 -0.15587,0.27277 -0.35071,0.27277 z"
           style="font-style:normal;font-variant:normal;font-weight:normal;font-stretch:normal;font-family:Condiment;-inkscape-font-specification:Condiment;fill:#ffffff"
           id="path4273"
           inkscape:connector-curvature="0" />
      </g>
      <g
         style="font-style:normal;font-weight:normal;font-size:40px;line-height:125%;font-family:Sans;letter-spacing:0px;word-spacing:0px;fill:#ffffff;fill-opacity:1;stroke:none;stroke-width:1px;stroke-linecap:butt;stroke-linejoin:miter;stroke-opacity:1"
         id="g4275"
         transform="matrix(1.116468,0,0,1.116468,-173.9648,9.1693597)">
        <path
           d="m -586.09576,743.78174 q 0,1.28906 -1.05469,2.26562 -1.03516,0.97657 -2.36328,0.97657 -0.42969,0 -0.56641,-0.19532 -0.13672,-0.21484 -0.13672,-0.54687 0,-0.33203 0.0781,-0.64453 -0.70313,0.23437 -1.5625,0.72265 -0.85938,0.48828 -2.10938,1.44532 -1.25,0.95703 -1.25,1.42578 0,0.15625 0.44922,0.15625 0.46875,0 1.42578,-0.3125 0.95703,-0.33203 1.32813,-0.33203 0.39062,0 0.50781,0.0391 0.25391,0.13672 0.54687,0.60547 0.29297,0.44922 0.29297,0.72265 0,0.25391 -0.50781,0.6836 -0.50781,0.42968 -1.15234,0.66406 -0.64453,0.21484 -0.85938,0.33203 -4.12109,2.30469 -4.12109,3.16406 0,1.52344 2.59765,1.52344 1.66016,0 3.33985,-1.05469 1.42578,-0.89843 2.55859,-1.8164 1.15235,-0.9375 1.44531,-1.15235 0.3125,-0.21484 0.46875,-0.21484 0.50782,0 0.50782,1.13281 0,1.13281 -0.13672,1.50391 -0.13672,0.35156 -0.78125,0.8789 -4.17969,3.39844 -7.91016,3.39844 -1.99219,0 -3.18359,-0.54687 -2.1875,-0.9961 -2.1875,-3.04688 0,-2.69531 3.73047,-4.08203 -0.74219,-0.33203 -0.95703,-0.83984 -0.21485,-0.52735 -0.21485,-1.66016 0,-1.15234 1.05469,-2.42187 1.07422,-1.28907 2.61719,-2.10938 3.4375,-1.85547 6.13281,-1.85547 0.64453,0 1.30859,0.3125 0.66407,0.3125 0.66407,0.87891 z"
           style="font-style:normal;font-variant:normal;font-weight:normal;font-stretch:normal;font-family:Yellowtail;-inkscape-font-specification:Yellowtail;fill:#ffffff"
           id="path4277"
           inkscape:connector-curvature="0" />
      </g>
      <g
         style="font-style:normal;font-weight:normal;font-size:40px;line-height:125%;font-family:Sans;letter-spacing:0px;word-spacing:0px;fill:#ffffff;fill-opacity:1;stroke:none;stroke-width:1px;stroke-linecap:butt;stroke-linejoin:miter;stroke-opacity:1"
         id="g4279"
         transform="matrix(1.116468,0,0,1.116468,-174.26385,9.1693597)">
        <path
           d="m -621.35291,741.49658 q 0,-0.44922 0.15625,-0.91797 0.17579,-0.48828 0.50782,-0.8789 0.33203,-0.39063 0.82031,-0.64453 0.50781,-0.25391 1.19141,-0.25391 1.13281,0 1.58203,0.44922 0.44922,0.42969 0.44922,1.09375 0,0.37109 -0.15625,0.82031 -0.13672,0.44922 -0.42969,0.83984 -0.29297,0.3711 -0.76172,0.625 -0.46875,0.25391 -1.11328,0.25391 -1.21094,0 -1.69922,-0.37109 -0.48828,-0.39063 -0.54688,-1.01563 z m -2.14843,4.39453 q 0.33203,-0.54687 0.76172,-0.78125 0.42968,-0.23437 0.8789,-0.23437 0.74219,0 1.26953,0.48828 0.54688,0.46875 0.54688,1.21094 -0.0195,0.17578 -0.0586,0.35156 -0.0195,0.17578 -0.11718,0.35156 -0.27344,0.50781 -0.44922,0.85938 -0.17578,0.35156 -0.33203,0.66406 -0.13672,0.29297 -0.27344,0.58594 -0.13672,0.29297 -0.33203,0.70312 -0.23438,0.48828 -0.52735,1.07422 -0.29296,0.56641 -0.5664,1.17188 -0.25391,0.60546 -0.44922,1.1914 -0.17578,0.58594 -0.17578,1.07422 0,0.52734 0.2539,0.70313 0.27344,0.15625 0.76172,0.15625 0.54688,0 1.13282,-0.23438 0.60546,-0.23437 1.21093,-0.60547 0.60547,-0.37109 1.19141,-0.83984 0.58594,-0.48828 1.09375,-0.97656 0.52734,-0.48829 0.95703,-0.9375 0.44922,-0.44922 0.74219,-0.80079 0.39062,-0.37109 0.78125,-0.37109 0.35156,0 0.5664,0.3125 0.23438,0.3125 0.23438,0.80078 0,0.44922 -0.23438,0.95703 -0.21484,0.50782 -0.72265,0.95703 -0.9961,1.01563 -2.03125,1.95313 -1.03516,0.91797 -2.12891,1.64062 -1.07422,0.70313 -2.16797,1.13282 -1.09375,0.42968 -2.20703,0.42968 -1.58203,0 -2.5,-0.80078 -0.89844,-0.82031 -0.89844,-2.53906 0,-0.89844 0.25391,-1.75781 0.25391,-0.85938 0.60547,-1.66016 0.35156,-0.82031 0.74219,-1.5625 0.39062,-0.76172 0.66406,-1.44531 0.0977,-0.25391 0.33203,-0.78125 0.25391,-0.52734 0.52734,-1.07422 0.3125,-0.64453 0.66407,-1.36719 z"
           style="font-style:normal;font-variant:normal;font-weight:normal;font-stretch:normal;font-family:Damion;-inkscape-font-specification:Damion;fill:#ffffff"
           id="path4281"
           inkscape:connector-curvature="0" />
        <path
           d="m -604.79041,754.42627 q -0.0195,0.0391 -0.0195,0.0977 0,0.0586 -0.0195,0.0977 0,0.35156 0.17578,0.74219 0.17578,0.37109 0.56641,0.37109 0.15625,0 0.23437,-0.0391 1.11329,-0.33203 2.2461,-1.05469 1.15234,-0.72265 2.20703,-1.58203 1.05469,-0.85937 1.93359,-1.75781 0.89844,-0.89844 1.48438,-1.60156 0.27344,-0.33203 0.60547,-0.33203 0.29297,0 0.50781,0.27343 0.23437,0.27344 0.23437,0.74219 0,0.37109 -0.21484,0.87891 -0.19531,0.50781 -0.66406,1.09375 -1.15235,1.26953 -2.36328,2.4414 -1.21094,1.17188 -2.44141,2.08985 -1.23047,0.89843 -2.46094,1.44531 -1.21093,0.54687 -2.38281,0.54687 -1.42578,0 -2.24609,-0.80078 -0.82032,-0.82031 -0.82032,-2.4414 0,-0.0977 0,-0.19532 0,-0.11718 0.0195,-0.21484 -0.44922,0.82031 -1.15235,1.50391 -0.70312,0.66406 -1.54297,1.15234 -0.83984,0.46875 -1.73828,0.72266 -0.89844,0.27343 -1.73828,0.27343 -0.72266,0 -1.32812,-0.19531 -0.60547,-0.19531 -1.05469,-0.625 -0.42969,-0.42969 -0.6836,-1.09375 -0.23437,-0.66406 -0.23437,-1.60156 0,-1.64063 0.50781,-3.10547 0.50781,-1.48437 1.34766,-2.71484 0.83984,-1.25 1.91406,-2.22657 1.09375,-0.99609 2.24609,-1.67968 1.17188,-0.70313 2.32422,-1.07422 1.15235,-0.3711 2.10938,-0.3711 1.11328,0 1.91406,0.3711 0.39063,0.19531 0.72266,0.52734 0.0781,-0.17578 0.15625,-0.33203 0.19531,-0.46875 0.35156,-0.80078 0.15625,-0.35156 0.21484,-0.50781 0.0586,-0.17578 0.33203,-0.82032 0.27344,-0.64453 0.625,-1.5039 0.3711,-0.87891 0.78125,-1.875 0.42969,-0.9961 0.78125,-1.875 0.35157,-0.87891 0.60547,-1.50391 0.25391,-0.64453 0.3125,-0.82031 0.13672,-0.48828 0.3711,-0.9375 0.23437,-0.46875 0.54687,-0.80078 0.33203,-0.35156 0.76172,-0.54688 0.42969,-0.21484 0.97656,-0.21484 0.74219,0 1.23047,0.33203 0.48828,0.3125 0.48828,1.23047 0,0.37109 -0.0977,0.76172 -0.0977,0.39062 -0.23438,0.76172 -0.11719,0.37109 -0.27344,0.74218 -0.13671,0.35157 -0.2539,0.66407 -0.97656,1.95312 -2.05078,4.25781 -1.07422,2.28516 -2.12891,4.60937 -1.05469,2.32422 -2.01172,4.53125 -0.95703,2.20704 -1.67969,3.98438 z m -0.58593,-7.63672 q -1.17188,0.0391 -2.46094,0.50781 -1.48438,0.50782 -2.71484,1.52344 -1.23047,0.99609 -2.08985,2.46094 -0.83984,1.46484 -0.95703,3.35937 0,0.78125 0.66406,0.78125 0.82032,0 1.5625,-0.33203 0.74219,-0.35156 1.40625,-0.91797 0.6836,-0.58593 1.26953,-1.32812 0.58594,-0.74219 1.07422,-1.54297 0.50782,-0.80078 0.89844,-1.58203 0.41016,-0.80078 0.70313,-1.48438 0.0976,-0.21484 0.27343,-0.60547 0.15625,-0.37109 0.3711,-0.83984 z"
           style="font-style:normal;font-variant:normal;font-weight:normal;font-stretch:normal;font-family:Damion;-inkscape-font-specification:Damion;fill:#ffffff"
           id="path4283"
           inkscape:connector-curvature="0" />
      </g>
    </g>
  </g>
</svg>
